<svg xmlns="http://www.w3.org/2000/svg" enable-background="new 0 0 100 100" viewBox="0 0 100 100"><path d="M94.45 51.54C93.4 48.78 90.8 47 87.85 47c-1.6 0-3.17.55-4.42 1.55L64.07 64.04c0-.01 0-.03 0-.04 0-3.86-3.14-7-7-7h-11.4c-8.19-5.28-20.97-5.27-29.17 0h-4.43c-3.86 0-7 3.14-7 7v24c0 3.86 3.14 7 7 7s7-3.14 7-7v-1h39.7c1.98 0 3.88-.73 5.35-2.05l28.46-25.62C94.78 57.36 95.51 54.3 94.45 51.54zM15.07 88c0 1.65-1.35 3-3 3s-3-1.35-3-3V64c0-1.65 1.35-3 3-3h3v8 16V88zM89.9 56.36L61.44 81.97C60.71 82.64 59.76 83 58.77 83h-39.7V69v-8.91c7.14-4.32 18.05-4.14 24.86.56.33.23.73.35 1.14.35h12c1.65 0 3 1.35 3 3s-1.35 3-3 3h-12c-1.1 0-2 .9-2 2s.9 2 2 2h16c.45 0 .89-.15 1.25-.44l23.61-18.89c.54-.43 1.22-.67 1.92-.67 1.96 0 2.69 1.51 2.87 1.97S91.36 55.05 89.9 56.36zM49.13 39h17.88c.88 0 1.66-.58 1.92-1.42l4.06-13.5c.23-.78-.03-1.62-.66-2.13-.63-.51-1.51-.59-2.22-.19l-6.36 3.52-3.91-7.23C59.48 17.4 58.8 17 58.07 17s-1.41.4-1.76 1.05l-3.91 7.23-6.36-3.52c-.71-.39-1.59-.32-2.22.19s-.89 1.35-.66 2.13l4.06 13.5C47.47 38.42 48.25 39 49.13 39zM52.23 29.75c.47.26 1.02.32 1.53.17s.94-.5 1.2-.97l3.12-5.75 3.12 5.75c.25.47.69.82 1.2.97.51.15 1.06.09 1.53-.17l3.82-2.12L65.52 35h-14.9l-2.22-7.37L52.23 29.75z"/><path d="M58.07,53c13.23,0,24-10.77,24-24S71.3,5,58.07,5s-24,10.77-24,24S44.84,53,58.07,53z M58.07,9c11.03,0,20,8.97,20,20
		s-8.97,20-20,20s-20-8.97-20-20S47.04,9,58.07,9z"/></svg>