<svg xmlns="http://www.w3.org/2000/svg" enable-background="new 0 0 512 512" viewBox="0 0 512 512"><path fill-rule="evenodd" d="M163.196,365.624c3.231-35.016,22.214-71.516,49.908-92.512c11.211-8.499,11.211-25.726,0-34.224
	c-28.188-21.37-47.356-58.804-50.07-94.387h185.933c-2.714,35.582-21.882,73.017-50.071,94.388c-11.21,8.499-11.21,25.724,0,34.222
	c27.694,20.995,46.677,57.496,49.908,92.512h-54.003c-8.132-10.775-18.296-19.558-29.913-24.406l-0.196-0.082v-30.407
	c0-4.801-3.892-8.693-8.693-8.693c-4.801,0-8.693,3.892-8.693,8.693v30.408l-0.195,0.082c-11.617,4.849-21.78,13.631-29.912,24.405
	H163.196L163.196,365.624z M256,24c49.554,0,95.461,15.518,133.125,41.955c35.284,24.766,63.35,59.08,80.432,99.168l-15.222-9.5
	c-3.745-2.33-8.67-1.183-11,2.563c-2.33,3.745-1.183,8.67,2.563,11l34.74,21.681c0.907,0.607,1.953,1.037,3.097,1.232
	c4.349,0.742,8.477-2.182,9.219-6.531l7.762-44.883c0.742-4.349-2.182-8.477-6.531-9.219c-4.349-0.742-8.477,2.182-9.219,6.531
	l-2.802,16.201c-18.423-40.871-47.572-75.841-83.851-101.305C358.012,24.605,308.934,8,256,8c-4.418,0-8,3.582-8,8
	S251.582,24,256,24L256,24z M27.035,374.003l2.8-16.191c18.275,40.521,47.122,75.255,83.031,100.685
	C153.336,487.157,202.723,504,256,504c4.418,0,8-3.582,8-8s-3.582-8-8-8c-49.932,0-96.145-15.733-133.946-42.502
	c-34.879-24.7-62.638-58.801-79.598-98.613l15.21,9.493c3.745,2.33,8.67,1.183,11-2.563c2.33-3.745,1.183-8.67-2.563-11
	l-34.74-21.681c-0.906-0.607-1.952-1.037-3.097-1.232c-4.349-0.742-8.477,2.182-9.219,6.531l-7.762,44.883
	c-0.742,4.349,2.182,8.477,6.531,9.219C22.166,381.276,26.293,378.352,27.035,374.003L27.035,374.003z M374.003,484.965
	l-16.196-2.801c41.29-18.616,76.567-48.197,102.112-85.031C487.712,357.055,504,308.417,504,256c0-4.418-3.582-8-8-8
	c-4.418,0-8,3.582-8,8c0,49.095-15.225,94.607-41.206,132.07c-24.805,35.768-59.406,64.222-99.914,81.482l9.497-15.218
	c2.33-3.745,1.183-8.67-2.563-11c-3.745-2.33-8.67-1.183-11,2.563l-21.681,34.74c-0.607,0.906-1.037,1.952-1.232,3.097
	c-0.742,4.349,2.182,8.477,6.531,9.219l44.883,7.762c4.349,0.742,8.477-2.182,9.219-6.531
	C381.276,489.834,378.352,485.707,374.003,484.965L374.003,484.965z M137.997,27.035l16.198,2.802
	C113.357,48.244,78.41,77.365,52.949,113.608C24.627,153.922,8,203.029,8,256c0,4.418,3.582,8,8,8s8-3.582,8-8
	c0-49.589,15.54-95.525,42.011-133.205c24.76-35.244,59.052-63.281,99.112-80.352l-9.5,15.223c-2.33,3.745-1.183,8.67,2.563,11
	c3.745,2.33,8.67,1.183,11-2.563l21.681-34.74c0.607-0.906,1.037-1.953,1.232-3.097c0.742-4.349-2.182-8.477-6.531-9.219
	l-44.883-7.762c-4.349-0.742-8.477,2.182-9.219,6.531C130.724,22.166,133.648,26.293,137.997,27.035L137.997,27.035z
	 M139.545,411.873v-15.125c0-8.319,6.806-15.125,15.124-15.125h202.661c8.318,0,15.124,6.806,15.124,15.125v15.125H139.545
	L139.545,411.873z M154.669,128.501c-8.319,0-15.124-6.806-15.124-15.125V98.252h232.91v15.125c0,8.319-6.806,15.125-15.124,15.125
	H154.669L154.669,128.501z M264.692,240.27v-19.913l0.195-0.083c18.191-7.592,32.821-24.827,41.663-44.258
	c-37.178-27.189-55.427,16.939-96.568,8.872c8.942,15.682,21.765,28.973,37.129,35.385l0.195,0.082v19.914
	c0,4.8,3.892,8.693,8.693,8.693C260.8,248.963,264.692,245.071,264.692,240.27L264.692,240.27z M264.692,271.453v-6.664
	c0-4.801-3.892-8.693-8.693-8.693c-4.801,0-8.693,3.892-8.693,8.693v6.664c0,4.801,3.892,8.693,8.693,8.693
	C260.8,280.145,264.692,276.253,264.692,271.453z" clip-rule="evenodd"/></svg>